# xmcd
#
# Track frame offsets:
#	150
#	13277
#	28590
#	38801
#	53588
#	64382
#	76370
#	93132
#	110794
#	123542
#	134527
#	148166
#
# Disc length: 2151 seconds
#
# Revision: 0
# Processed by: cddbd v1.5.2PL0 Copyright (c) Steve Scherf et al.
# Submitted via: EZCDAudioConverter 4.0.5.1
#
DISCID=ac08650c
DTITLE=Kris Kristofferson - Live At RCA Studios 
DYEAR=1972
DGENRE=Country
TTITLE0=Duvalier's Dream
TTITLE1=When I Loved Her
TTITLE2=Jesus Was A Capricorn
TTITLE3=Same Old Song
TTITLE4=Band Introductions
TTITLE5=Smile At Me Again
TTITLE6=Loving Her Was Easier (Than Anything I'll Ever Do Again)
TTITLE7=Casey's Last Ride
TTITLE8=Billy Dee
TTITLE9=The Law Is For Protection Of The People
TTITLE10=Sunday Mornin' Comin' Down
TTITLE11=Help Me Make It Through The Night
EXTD=
EXTT0=
EXTT1=
EXTT2=
EXTT3=
EXTT4=
EXTT5=
EXTT6=
EXTT7=
EXTT8=
EXTT9=
EXTT10=
EXTT11=
PLAYORDER=
